<?xml version="1.0" standalone="no"?>
<!DOCTYPE svg PUBLIC "-//W3C//DTD SVG 20010904//EN"
 "http://www.w3.org/TR/2001/REC-SVG-20010904/DTD/svg10.dtd">
<svg version="1.0" xmlns="http://www.w3.org/2000/svg"
 width="1004.000000pt" height="590.000000pt" viewBox="0 0 1004.000000 590.000000"
 preserveAspectRatio="xMidYMid meet">

<g transform="translate(0.000000,590.000000) scale(0.100000,-0.100000)"
fill="#000000" stroke="none">
<path d="M2250 3759 c-22 -14 -47 -22 -68 -20 -45 4 -83 -14 -107 -49 -12 -16
-50 -44 -85 -62 -74 -38 -120 -100 -124 -165 -1 -21 -13 -58 -25 -82 -19 -37
-22 -56 -19 -110 5 -71 7 -66 -79 -136 -38 -31 -42 -63 -19 -136 8 -24 17 -60
20 -80 8 -48 39 -86 75 -94 24 -5 30 -12 35 -48 4 -23 18 -60 31 -82 49 -83
192 -198 333 -267 57 -28 76 -33 142 -33 88 1 145 23 274 109 134 89 235 211
236 284 0 16 9 27 33 37 18 7 40 22 49 32 18 19 46 125 55 204 4 42 2 48 -27
72 -17 15 -36 27 -42 27 -6 0 -21 11 -34 25 -19 21 -22 30 -14 51 12 29 -1 88
-24 119 -9 11 -16 34 -16 51 0 65 -60 158 -121 190 -16 8 -29 20 -29 27 0 20
-54 67 -77 67 -11 0 -26 7 -34 16 -26 31 -92 56 -158 60 -36 2 -84 6 -106 9
-31 5 -48 1 -75 -16z m113 -41 c8 -12 6 -37 -8 -90 -18 -73 -18 -76 1 -114 13
-28 31 -45 62 -59 29 -13 42 -26 42 -40 0 -11 9 -35 21 -54 l20 -33 -20 -20
c-25 -23 -27 -65 -5 -89 16 -17 15 -19 -11 -29 -78 -30 -116 -31 -191 -9 -42
13 -53 58 -23 98 17 24 18 31 8 54 -13 29 -66 67 -93 67 -28 0 -17 -27 19 -49
62 -36 38 -73 -32 -51 -112 36 -112 128 -1 175 47 19 68 19 68 0 0 -25 61 -85
112 -111 26 -13 48 -30 48 -37 0 -20 -22 -37 -48 -37 -33 0 -26 -34 9 -38 35
-4 79 32 79 66 -1 35 -16 55 -65 80 -22 11 -53 34 -70 52 -30 31 -30 32 -30
147 0 104 2 117 20 130 25 18 75 13 88 -9z m127 2 c19 -6 44 -17 54 -25 26
-20 6 -43 -42 -47 -26 -2 -38 -8 -40 -20 -3 -14 3 -18 22 -18 18 0 30 -8 38
-25 10 -23 37 -35 39 -17 5 57 22 82 54 82 33 0 45 -21 55 -90 10 -67 37 -123
63 -128 22 -5 21 13 -4 65 -30 62 -19 76 24 31 63 -66 75 -146 24 -159 -59
-16 -127 25 -147 87 -12 35 -34 45 -43 21 -8 -21 27 -91 58 -115 40 -32 98
-45 142 -33 44 12 57 3 67 -44 13 -60 -2 -66 -167 -69 -158 -2 -187 5 -187 45
0 30 26 33 86 10 71 -27 147 -29 142 -3 -2 12 -17 19 -53 23 -68 8 -128 41
-155 84 -17 28 -21 47 -18 93 2 46 0 57 -13 60 -11 2 -20 -6 -25 -22 -8 -23
-11 -24 -34 -13 -39 20 -53 57 -39 109 6 24 13 62 16 86 6 47 17 51 83 32z
m-281 -34 c9 -10 10 -36 5 -85 -6 -68 -7 -70 -38 -76 -44 -10 -110 -50 -130
-79 -44 -68 -5 -152 84 -181 28 -9 55 -26 61 -37 6 -11 9 -21 7 -22 -2 -2 -39
1 -83 7 -71 9 -82 13 -111 44 -22 23 -40 33 -55 31 -32 -4 -35 -26 -6 -37 42
-16 39 -28 -11 -35 -38 -5 -49 -3 -59 11 -16 20 -17 92 -3 128 8 22 15 26 33
20 39 -11 51 -10 55 6 1 9 -8 20 -23 27 -21 10 -25 18 -25 53 0 48 33 99 84
130 43 26 49 24 43 -16 -3 -19 -1 -37 4 -41 19 -11 37 17 44 66 9 66 36 100
80 100 18 0 38 -6 44 -14z m20 -540 l34 -18 -5 -63 c-8 -94 -40 -145 -103
-168 -57 -20 -147 -17 -194 7 -35 19 -59 66 -67 139 -14 116 2 128 176 124 98
-2 132 -7 159 -21z m571 -1 c20 -18 22 -27 17 -81 -2 -33 -14 -81 -25 -107
-19 -43 -25 -47 -78 -63 -105 -30 -199 -3 -237 69 -25 49 -35 158 -16 174 28
23 87 32 200 30 101 -2 120 -5 139 -22z m-991 -34 c16 -10 36 -230 22 -244
-12 -12 -40 20 -46 51 -3 15 -10 45 -16 67 -21 78 -22 101 -4 118 19 19 24 20
44 8z m1145 -4 c20 -15 20 -28 -9 -152 -17 -73 -21 -81 -44 -87 -11 -2 -13 13
-12 72 2 129 11 180 30 180 10 0 25 -6 35 -13z m-561 -44 c9 -21 26 -64 37
-95 12 -33 34 -68 50 -82 43 -36 129 -51 213 -38 80 12 109 29 137 80 l21 37
-6 -65 c-14 -154 -44 -216 -148 -302 -123 -100 -257 -168 -337 -168 -89 0
-269 99 -376 204 -71 71 -104 145 -104 231 l0 53 28 -28 c67 -67 254 -65 326
3 22 22 40 54 56 102 31 95 37 105 64 105 17 0 27 -10 39 -37z"/>
<path d="M2102 3068 c-28 -36 -20 -102 14 -115 22 -8 44 22 44 60 0 54 -33 85
-58 55z"/>
<path d="M2560 3060 c-16 -29 -8 -91 12 -103 26 -17 48 9 48 57 0 62 -37 89
-60 46z"/>
<path d="M2280 2833 c0 -22 69 -37 111 -24 65 20 48 36 -36 36 -51 0 -75 -4
-75 -12z"/>
<path d="M2561 2774 c11 -14 9 -19 -11 -35 -50 -38 -131 -62 -224 -65 -49 -2
-91 -6 -94 -9 -13 -12 77 -37 137 -37 79 0 111 12 169 59 32 26 46 32 52 24 5
-9 9 -5 13 10 7 28 -16 69 -39 69 -14 0 -14 -2 -3 -16z"/>
<path d="M6031 3738 c-5 -13 -16 -40 -24 -60 -17 -41 -13 -52 13 -36 14 9 22
9 35 -2 15 -12 16 -8 13 50 -3 67 -21 90 -37 48z m15 -65 c-10 -10 -19 5 -10
18 6 11 8 11 12 0 2 -7 1 -15 -2 -18z"/>
<path d="M6125 3728 c-10 -57 -10 -87 0 -88 6 -1 13 9 17 22 3 14 6 16 7 7 1
-9 7 -22 15 -28 15 -13 16 -10 32 82 7 44 -12 52 -23 10 l-6 -28 -10 28 c-12
36 -25 34 -32 -5z"/>
<path d="M6303 3739 c-15 -34 -20 -98 -8 -99 12 -1 27 66 22 100 l-3 25 -11
-26z"/>
<path d="M6366 3752 c-11 -19 -19 -127 -8 -117 5 6 12 19 14 30 4 17 6 16 17
-9 16 -40 29 -24 37 48 5 44 4 57 -4 52 -7 -4 -12 -14 -12 -22 0 -8 -4 -14
-10 -14 -5 0 -10 6 -10 14 0 18 -17 30 -24 18z"/>
<path d="M6492 3751 c-20 -12 -35 -90 -21 -107 15 -18 33 -18 49 1 17 20 5 32
-15 15 -13 -11 -15 -8 -15 21 0 43 16 70 29 50 5 -7 14 -10 20 -6 9 5 9 10 0
21 -13 16 -28 18 -47 5z"/>
<path d="M6587 3753 c-3 -5 -8 -29 -12 -54 -5 -34 -3 -48 9 -58 24 -20 54 3
61 47 11 59 10 61 0 62 -5 1 -14 -15 -18 -37 -13 -59 -17 -67 -27 -57 -5 5 -5
28 -1 52 8 38 0 65 -12 45z"/>
<path d="M6696 3738 c-16 -80 -17 -98 -1 -104 8 -4 26 1 39 9 18 12 23 25 23
59 0 24 -5 46 -11 50 -22 15 -46 8 -50 -14z m44 -19 c0 -5 -4 -9 -10 -9 -5 0
-10 7 -10 16 0 8 5 12 10 9 6 -3 10 -10 10 -16z m-19 -62 c-8 -8 -11 -7 -11 4
0 20 13 34 18 19 3 -7 -1 -17 -7 -23z"/>
<path d="M6811 3709 c-26 -64 -28 -87 -5 -68 12 10 20 10 34 1 10 -6 19 -9 21
-7 2 2 2 31 1 64 -5 76 -22 80 -51 10z m25 -36 c-10 -10 -19 5 -10 18 6 11 8
11 12 0 2 -7 1 -15 -2 -18z"/>
<path d="M6915 3750 c-3 -5 -1 -10 5 -10 8 0 9 -17 5 -55 -5 -37 -4 -55 4 -55
5 0 13 23 17 51 4 28 13 53 20 56 8 3 14 9 14 14 0 12 -57 11 -65 -1z"/>
<path d="M7015 3748 c-10 -27 -22 -108 -17 -113 3 -3 16 -5 29 -5 26 0 31 15
8 24 -8 3 -15 10 -15 16 0 5 7 10 15 10 8 0 15 5 15 10 0 6 -4 10 -10 10 -19
0 -10 32 10 37 11 3 20 9 20 14 0 14 -50 11 -55 -3z"/>
<path d="M7177 3742 c-22 -24 -23 -98 -2 -106 21 -8 43 3 49 22 14 56 16 75 5
88 -16 19 -33 18 -52 -4z m29 -68 c-4 -14 -11 -22 -16 -19 -14 8 -12 42 2 68
l13 22 3 -24 c2 -12 1 -34 -2 -47z"/>
<path d="M7285 3748 c-11 -31 -22 -109 -15 -113 11 -7 20 6 20 27 0 10 7 18
15 18 8 0 15 5 15 10 0 6 -4 10 -10 10 -19 0 -10 32 10 37 11 3 20 9 20 14 0
14 -50 11 -55 -3z"/>
<path d="M7440 3745 c-7 -8 -15 -35 -17 -59 -4 -34 -2 -44 12 -49 18 -8 55 8
55 23 0 13 -17 13 -25 0 -13 -21 -26 3 -19 33 9 44 14 50 30 36 19 -16 30 -4
14 16 -16 19 -34 19 -50 0z"/>
<path d="M7536 3743 c-12 -46 -17 -101 -7 -107 11 -7 17 9 26 77 4 29 2 47 -4
47 -5 0 -12 -8 -15 -17z"/>
<path d="M7605 3748 c-12 -32 -22 -109 -14 -113 12 -8 18 8 25 69 6 51 0 74
-11 44z"/>
<path d="M7666 3743 c-3 -10 -8 -39 -12 -65 -6 -47 -5 -48 19 -48 14 0 29 5
32 10 3 6 -1 10 -9 10 -22 0 -20 26 2 35 16 6 16 7 0 16 -19 11 -13 39 8 39 8
0 14 5 14 10 0 18 -48 11 -54 -7z"/>
<path d="M7826 3751 c-3 -4 -8 -34 -12 -65 -6 -51 -5 -56 13 -56 10 0 26 6 35
13 20 15 31 86 16 104 -12 15 -44 17 -52 4z m30 -38 c-10 -10 -19 5 -10 18 6
11 8 11 12 0 2 -7 1 -15 -2 -18z m-1 -52 c-9 -16 -25 -3 -18 15 4 10 9 12 15
6 6 -6 7 -15 3 -21z"/>
<path d="M7936 3751 c-13 -20 -19 -121 -7 -121 6 0 11 9 11 19 0 22 20 40 20
19 1 -8 7 -5 16 7 15 19 15 19 12 -7 -4 -37 15 -39 23 -2 10 46 10 94 -1 94
-5 0 -16 -12 -23 -26 l-14 -27 -7 27 c-6 26 -20 34 -30 17z"/>
<path d="M8072 3748 c-18 -18 -15 -43 8 -63 11 -10 17 -22 14 -27 -4 -6 -10
-6 -17 1 -15 15 -27 14 -27 -3 0 -19 28 -28 51 -16 25 14 24 45 -2 64 -12 8
-18 19 -14 26 6 9 9 9 15 0 4 -7 13 -9 19 -5 9 5 9 10 0 21 -14 17 -31 18 -47
2z"/>
<path d="M8176 3738 c-21 -30 -21 -94 0 -102 17 -7 54 10 54 24 0 13 -17 13
-25 0 -13 -21 -26 3 -19 33 9 44 14 50 30 36 19 -16 30 -4 14 16 -18 21 -36
19 -54 -7z"/>
<path d="M8277 3753 c-3 -5 -8 -34 -11 -65 -7 -57 -7 -58 18 -58 14 0 28 5 31
10 3 6 -1 10 -9 10 -21 0 -20 20 2 36 16 13 16 13 -2 14 -12 0 -16 5 -12 16 3
9 6 18 6 20 0 2 7 4 15 4 8 0 15 5 15 10 0 12 -47 14 -53 3z"/>
<path d="M4085 3551 l-79 -6 -7 -35 c-9 -43 -28 -415 -31 -605 l-3 -140 103
-3 104 -3 -3 104 c-1 57 1 109 5 116 4 6 3 17 -3 24 -6 8 -6 18 -1 27 6 8 10
56 10 105 0 50 5 161 11 249 10 132 9 160 -2 167 -8 5 -16 8 -19 7 -3 -1 -41
-4 -85 -7z m-25 -38 c0 -11 -35 -80 -46 -92 -3 -3 -4 20 -3 51 2 52 4 56 25
54 13 0 24 -6 24 -13z m-36 -165 c-2 -29 -4 -72 -5 -95 0 -24 -5 -43 -11 -43
-7 0 -9 18 -4 53 3 28 6 71 6 95 0 23 4 42 9 42 5 0 7 -24 5 -52z m-19 -235
c-9 -37 -18 -20 -9 19 4 18 9 27 11 20 3 -7 2 -24 -2 -39z m135 -52 c0 -5 -7
-12 -16 -15 -14 -5 -15 -4 -4 9 14 17 20 19 20 6z"/>
<path d="M6485 3545 c-5 -1 -48 -11 -94 -21 -45 -10 -85 -23 -87 -28 -9 -26
-42 -722 -34 -730 4 -4 66 -6 137 -4 115 3 133 6 179 30 154 80 257 316 225
517 -20 128 -65 193 -158 227 -34 12 -141 18 -168 9z m235 -175 c0 -5 -4 -10
-10 -10 -5 0 -10 5 -10 10 0 6 5 10 10 10 6 0 10 -4 10 -10z m-112 -42 c18
-37 32 -121 22 -133 -4 -5 -11 -28 -14 -50 -15 -85 -93 -185 -146 -185 -19 0
-34 57 -20 75 6 8 19 204 20 298 0 14 44 26 85 24 32 -2 42 -7 53 -29z m57
-108 c3 -5 1 -10 -4 -10 -6 0 -11 5 -11 10 0 6 2 10 4 10 3 0 8 -4 11 -10z
m55 -121 c0 -6 -4 -7 -10 -4 -5 3 -10 11 -10 16 0 6 5 7 10 4 6 -3 10 -11 10
-16z m-390 -249 c0 -5 -4 -10 -10 -10 -5 0 -10 5 -10 10 0 6 5 10 10 10 6 0
10 -4 10 -10z"/>
<path d="M7135 3543 c-95 -20 -161 -37 -168 -43 -7 -7 -46 -592 -47 -702 l0
-38 120 0 c98 0 130 4 177 22 105 39 204 168 238 309 19 84 19 221 -1 288 -21
73 -81 136 -147 156 -48 14 -127 18 -172 8z m245 -167 c0 -3 -4 -8 -10 -11 -5
-3 -10 -1 -10 4 0 6 5 11 10 11 6 0 10 -2 10 -4z m-114 -56 c19 -59 32 -120
24 -120 -4 0 -11 -19 -14 -42 -10 -65 -56 -150 -95 -175 -42 -29 -71 -30 -71
-4 0 11 -5 23 -10 26 -8 5 -7 11 0 20 10 12 31 225 28 275 -3 51 9 59 87 56
36 -1 40 -4 51 -36z m109 -209 c3 -5 1 -12 -5 -16 -5 -3 -10 1 -10 9 0 18 6
21 15 7z m-385 -261 c0 -5 -4 -10 -10 -10 -5 0 -10 5 -10 10 0 6 5 10 10 10 6
0 10 -4 10 -10z"/>
<path d="M7648 3523 c-46 -17 -68 -31 -68 -42 0 -9 40 -128 90 -264 l90 -249
-10 -96 c-6 -53 -6 -100 -2 -104 5 -5 49 -8 98 -6 l89 3 5 115 5 115 104 252
c57 139 101 259 98 267 -6 14 -114 32 -151 25 -15 -3 -91 -165 -130 -274 -10
-26 -12 -21 -71 135 -47 122 -61 151 -74 149 -3 0 -36 -12 -73 -26z m427 -18
c11 -3 27 -6 35 -7 14 -3 26 -17 15 -19 -20 -2 -115 24 -115 33 0 6 9 8 23 3
12 -3 31 -8 42 -10z m-123 -397 c-7 -7 -12 -8 -12 -2 0 14 12 26 19 19 2 -3
-1 -11 -7 -17z m-23 -188 c1 -57 -2 -90 -9 -90 -6 0 -10 39 -10 103 0 124 16
113 19 -13z"/>
<path d="M3480 3523 c-69 -8 -129 -18 -133 -22 -10 -9 -69 -720 -61 -732 7
-13 351 -11 397 2 48 13 102 60 130 113 16 30 21 58 21 108 0 60 -4 73 -33
114 l-32 46 24 27 c39 42 59 90 64 156 9 119 -62 194 -190 201 -34 1 -118 -4
-187 -13z m158 -203 c4 -37 -18 -60 -78 -80 -63 -22 -67 -18 -55 56 7 47 17
53 90 50 35 -1 40 -4 43 -26z m-28 -275 c25 -30 -19 -86 -82 -103 l-38 -10 0
58 c0 53 2 59 23 63 48 9 85 6 97 -8z m-213 -127 c-3 -8 -6 -5 -6 6 -1 11 2
17 5 13 3 -3 4 -12 1 -19z m59 -96 c-13 -12 -17 8 -10 40 l9 33 3 -33 c2 -19
1 -36 -2 -40z"/>
<path d="M4495 3516 c-137 -65 -214 -229 -215 -457 0 -212 69 -298 240 -299
131 0 214 57 260 177 15 37 23 82 24 125 1 61 -2 70 -27 95 -26 26 -32 28
-107 26 -108 -3 -116 -8 -130 -92 -15 -90 -12 -106 22 -106 39 -1 41 -8 13
-35 -28 -27 -70 -29 -93 -6 -14 14 -17 37 -16 124 1 117 18 196 56 252 53 77
93 66 93 -26 l0 -59 80 -3 c44 -1 87 2 95 8 10 6 16 32 18 87 4 100 -21 155
-88 190 -60 32 -156 32 -225 -1z"/>
<path d="M5120 3523 c-69 -8 -130 -20 -136 -26 -10 -11 -64 -610 -64 -704 l0
-33 184 0 c194 0 228 6 285 48 90 67 109 248 33 316 l-22 19 26 30 c47 56 64
102 64 172 0 74 -14 110 -60 148 -59 50 -103 54 -310 30z m150 -187 c18 -22
-8 -68 -50 -88 -40 -19 -79 -27 -80 -15 0 4 0 29 0 56 0 43 3 50 23 54 49 10
95 6 107 -7z m-140 -56 c0 -5 -2 -10 -4 -10 -3 0 -8 5 -11 10 -3 6 -1 10 4 10
6 0 11 -4 11 -10z m118 -256 c4 -36 -19 -60 -75 -79 -46 -16 -53 -13 -53 28 0
74 13 86 85 84 37 -2 40 -4 43 -33z m-158 -179 c0 -14 -4 -25 -9 -25 -4 0 -6
11 -3 25 2 14 6 25 8 25 2 0 4 -11 4 -25z"/>
<path d="M5646 3532 c-2 -4 -14 -104 -26 -222 -37 -360 -20 -476 80 -528 40
-21 56 -23 145 -20 88 3 106 7 154 33 59 33 91 73 123 156 17 46 22 90 30 308
5 139 7 260 4 267 -4 10 -28 14 -90 14 -81 0 -86 -1 -90 -22 -3 -13 -10 -126
-16 -252 -13 -284 -24 -316 -108 -316 -62 0 -66 31 -43 330 10 135 17 248 14
253 -6 9 -170 9 -177 -1z m486 -47 c-2 -14 -6 -25 -8 -25 -2 0 -4 11 -4 25 0
14 4 25 9 25 4 0 6 -11 3 -25z m-477 -153 c-11 -12 -13 6 -7 73 l7 70 3 -69
c2 -37 0 -71 -3 -74z"/>
<path d="M4547 2653 c-4 -3 -7 -23 -7 -44 0 -38 -1 -38 -30 -32 -40 7 -59 -17
-60 -74 0 -73 30 -114 69 -93 10 5 27 6 39 3 15 -3 22 -1 22 8 1 8 2 57 4 109
4 107 -10 151 -37 123z m-22 -164 c0 -24 -5 -34 -15 -34 -16 0 -25 37 -16 62
10 26 31 8 31 -28z"/>
<path d="M5692 2648 c-7 -7 -12 -26 -12 -43 0 -29 -2 -31 -29 -27 -37 5 -61
-27 -61 -85 0 -53 36 -101 66 -88 10 5 30 9 44 9 25 1 25 2 28 101 4 134 -4
165 -36 133z m-24 -130 c16 -16 15 -43 -3 -58 -12 -10 -17 -8 -26 13 -19 41 1
73 29 45z"/>
<path d="M6486 2635 c-21 -7 -43 -20 -47 -27 -12 -18 -11 -141 1 -173 13 -35
34 -27 38 16 3 25 11 39 35 54 43 28 42 51 -1 47 -41 -3 -38 9 8 40 62 42 40
70 -34 43z"/>
<path d="M3855 2626 c-16 -11 -19 -28 -19 -109 -1 -111 6 -123 59 -113 63 12
99 74 60 106 -13 11 -13 15 0 33 18 26 19 69 3 85 -16 16 -80 15 -103 -2z m52
-73 c-16 -16 -17 -16 -17 3 0 26 11 37 24 24 7 -7 5 -16 -7 -27z m11 -75 c-6
-18 -28 -21 -28 -4 0 9 7 16 16 16 9 0 14 -5 12 -12z"/>
<path d="M4235 2629 c-10 -15 1 -23 20 -15 9 3 13 10 10 16 -8 13 -22 13 -30
-1z"/>
<path d="M4349 2618 c-14 -26 -18 -148 -6 -191 5 -19 13 -27 25 -25 15 3 17
18 17 117 0 118 -10 147 -36 99z"/>
<path d="M4667 2633 c-12 -11 -8 -23 8 -23 8 0 15 7 15 15 0 16 -12 20 -23 8z"/>
<path d="M5268 2629 c-22 -12 -24 -39 -3 -39 25 0 21 -120 -5 -150 -11 -12
-17 -27 -14 -31 9 -15 68 -10 92 7 22 15 22 17 6 35 -23 25 -16 137 10 151 13
8 15 13 5 24 -13 16 -66 18 -91 3z"/>
<path d="M5805 2629 c-10 -15 1 -23 20 -15 9 3 13 10 10 16 -8 13 -22 13 -30
-1z"/>
<path d="M6090 2601 c0 -46 16 -64 26 -27 8 32 2 58 -13 64 -9 2 -13 -9 -13
-37z"/>
<path d="M6819 2611 c-6 -16 -19 -33 -30 -36 -23 -8 -25 -23 -4 -31 11 -4 15
-21 15 -56 0 -70 12 -88 60 -88 33 0 40 3 40 19 0 13 -8 21 -22 23 -19 2 -24
10 -26 45 -3 38 0 44 22 55 31 13 33 28 7 35 -12 3 -21 15 -23 31 -4 37 -27
39 -39 3z"/>
<path d="M6208 2589 c-35 -20 -41 -47 -19 -85 26 -44 26 -43 -4 -54 -44 -17
-22 -59 23 -43 49 17 70 76 37 103 -20 17 -19 29 7 49 36 30 -1 55 -44 30z"/>
<path d="M7339 2571 c-57 -57 -31 -161 39 -161 33 0 67 32 58 55 -4 13 -10 14
-26 5 -12 -6 -29 -9 -38 -7 -15 3 -14 5 3 12 57 23 74 80 33 109 -30 21 -35
21 -69 -13z m51 -30 c0 -12 -20 -25 -27 -18 -7 7 6 27 18 27 5 0 9 -4 9 -9z"/>
<path d="M4230 2565 c-11 -29 -14 -114 -4 -139 3 -9 12 -16 19 -16 19 0 25 24
25 95 0 43 -5 66 -15 75 -12 10 -16 8 -25 -15z"/>
<path d="M4663 2578 c-29 -36 -25 -172 5 -166 21 4 35 62 29 116 -5 50 -19 69
-34 50z"/>
<path d="M4767 2583 c-12 -11 -8 -171 4 -179 17 -10 29 9 35 52 9 69 14 85 25
79 5 -4 8 -34 7 -68 -2 -50 0 -62 12 -62 8 0 20 16 27 35 31 90 3 167 -52 142
-15 -7 -27 -8 -30 -2 -7 12 -19 13 -28 3z"/>
<path d="M4978 2573 c-47 -54 -52 -121 -11 -152 15 -13 34 -19 45 -16 12 4 18
1 18 -8 0 -23 -27 -40 -55 -33 -33 8 -47 -21 -19 -41 29 -21 74 -12 98 20 17
23 22 46 24 123 4 107 -1 133 -22 115 -10 -8 -16 -9 -21 -1 -10 16 -40 12 -57
-7z m62 -78 c0 -20 -27 -48 -38 -41 -16 10 -15 59 0 74 10 10 15 9 25 -5 7 -9
13 -22 13 -28z"/>
<path d="M5414 2577 c-3 -8 -4 -49 -2 -93 2 -62 6 -79 18 -79 10 0 18 15 23
45 16 85 18 92 25 85 4 -4 7 -35 7 -68 0 -48 3 -62 15 -62 36 0 52 128 21 166
-16 20 -22 22 -44 12 -17 -8 -29 -9 -32 -3 -9 14 -25 12 -31 -3z"/>
<path d="M5801 2571 c-6 -11 -11 -49 -11 -86 0 -50 4 -67 15 -72 25 -9 29 3
33 81 3 56 1 75 -11 85 -13 10 -17 9 -26 -8z"/>
<path d="M5922 2574 c-37 -26 -28 -45 18 -38 50 8 54 -10 8 -29 -43 -18 -61
-41 -53 -67 9 -29 38 -42 69 -30 17 6 26 6 26 0 0 -6 9 -10 21 -10 20 0 21 4
17 76 -3 65 -7 79 -27 95 -28 23 -49 24 -79 3z m58 -103 c0 -12 -20 -25 -27
-18 -7 7 6 27 18 27 5 0 9 -4 9 -9z"/>
<path d="M4029 2542 c-22 -73 9 -142 64 -142 10 0 29 11 42 25 20 19 25 34 25
73 0 52 -21 94 -39 77 -5 -5 -11 -35 -13 -65 -2 -41 -7 -55 -18 -55 -12 0 -15
13 -15 60 0 48 -3 60 -17 63 -12 2 -20 -8 -29 -36z"/>
<path d="M6599 2542 c-22 -73 9 -142 64 -142 10 0 29 11 42 25 20 19 25 34 25
73 0 52 -21 94 -39 77 -5 -5 -11 -35 -13 -65 -2 -41 -7 -55 -18 -55 -12 0 -15
13 -15 60 0 48 -3 60 -17 63 -12 2 -20 -8 -29 -36z"/>
<path d="M6963 2568 c-18 -22 -24 -83 -12 -116 18 -53 72 -69 109 -32 39 39
21 180 -20 155 -5 -3 -10 -30 -10 -60 0 -50 -12 -76 -28 -60 -4 4 -7 32 -7 62
0 56 -12 76 -32 51z"/>
<path d="M7147 2573 c-9 -8 -9 -136 -1 -157 3 -9 12 -16 19 -16 17 0 25 23 25
70 0 43 17 61 51 58 30 -4 38 27 10 42 -16 8 -27 8 -43 -1 -16 -9 -23 -9 -26
0 -4 12 -25 15 -35 4z"/>
</g>
</svg>
